HIERARCHY
ROOT SpineBase
{
  OFFSET 0.000000 0.000000 0.000000
  CHANNELS 6 Xposition Yposition Zposition Zrotation Xrotation Yrotation
  JOINT SpineMid
  {
    OFFSET 0.000000 32.675187 -0.000000
    CHANNELS 3 Zrotation Xrotation Yrotation
    JOINT SpineShoulder
    {
      OFFSET -0.023619 24.289932 -0.869024
      CHANNELS 3 Zrotation Xrotation Yrotation
      JOINT Neck
      {
        OFFSET 0.006912 8.048427 -0.637473
        CHANNELS 3 Zrotation Xrotation Yrotation
        JOINT Head
        {
          OFFSET 4.308752 12.365386 5.498382
          CHANNELS 3 Zrotation Xrotation Yrotation
          End Site
          {
            OFFSET 0 0 0
          }
        }
      }
      JOINT ShoulderLeft
      {
        OFFSET -10.711317 -2.460948 -11.393304
        CHANNELS 3 Zrotation Xrotation Yrotation
        JOINT ElbowLeft
        {
          OFFSET -7.370542 -21.607472 -9.245993
          CHANNELS 3 Zrotation Xrotation Yrotation
          JOINT WristLeft
          {
            OFFSET 3.169067 -21.747315 -10.897370
            CHANNELS 3 Zrotation Xrotation Yrotation
            JOINT HandLeft
            {
              OFFSET -0.171199 -8.914079 -1.571503
              CHANNELS 3 Zrotation Xrotation Yrotation
              JOINT HandTipLeft
              {
                OFFSET 2.013728 -7.245281 -1.710983
                CHANNELS 3 Zrotation Xrotation Yrotation
                End Site
                {
                  OFFSET 0 0 0
                }
              }
              JOINT ThumbLeft
              {
                OFFSET -2.672004 -2.266513 -1.257876
                CHANNELS 3 Zrotation Xrotation Yrotation
                End Site
                {
                  OFFSET 0 0 0
                }
              }
            }
          }
        }
      }
      JOINT ShoulderRight
      {
        OFFSET 11.118942 -2.440952 10.463854
        CHANNELS 3 Zrotation Xrotation Yrotation
        JOINT ElbowRight
        {
          OFFSET 0.448367 -25.754244 3.177369
          CHANNELS 3 Zrotation Xrotation Yrotation
          JOINT WristRight
          {
            OFFSET 2.522277 -25.635771 3.033632
            CHANNELS 3 Zrotation Xrotation Yrotation
            JOINT HandRight
            {
              OFFSET 0.000093 -9.137040 0.955988
              CHANNELS 3 Zrotation Xrotation Yrotation
              JOINT HandTipRight
              {
                OFFSET 2.053154 -6.029142 -0.944685
                CHANNELS 3 Zrotation Xrotation Yrotation
                End Site
                {
                  OFFSET 0 0 0
                }
              }
              JOINT ThumbRight
              {
                OFFSET 4.229673 0.051097 -7.633473
                CHANNELS 3 Zrotation Xrotation Yrotation
                End Site
                {
                  OFFSET 0 0 0
                }
              }
            }
          }
        }
      }
    }
  }
  JOINT HipLeft
  {
    OFFSET -4.696461 1.729092 -8.235591
    CHANNELS 3 Zrotation Xrotation Yrotation
    JOINT KneeLeft
    {
      OFFSET -11.815174 -34.090035 -4.110870
      CHANNELS 3 Zrotation Xrotation Yrotation
      JOINT AnkleLeft
      {
        OFFSET -7.149363 -38.001522 4.451913
        CHANNELS 3 Zrotation Xrotation Yrotation
        JOINT FootLeft
        {
          OFFSET 1.555192 -7.042427 -7.120587
          CHANNELS 3 Zrotation Xrotation Yrotation
          End Site
          {
            OFFSET 0 0 0
          }
        }
      }
    }
  }
  JOINT HipRight
  {
    OFFSET 5.343969 0.197957 1.202124
    CHANNELS 3 Zrotation Xrotation Yrotation
    JOINT KneeRight
    {
      OFFSET -3.915598 -37.689298 2.120628
      CHANNELS 3 Zrotation Xrotation Yrotation
      JOINT AnkleRight
      {
        OFFSET -7.296464 -37.267722 10.581977
        CHANNELS 3 Zrotation Xrotation Yrotation
        JOINT FootRight
        {
          OFFSET 2.271592 -7.760974 -4.028376
          CHANNELS 3 Zrotation Xrotation Yrotation
          End Site
          {
            OFFSET 0 0 0
          }
        }
      }
    }
  }
}
MOTION
Frames: 9
Frame Time: 0.033333
-30.906317 86.382760 343.009168 -0.359857 5.452992 -47.528524 -0.553187 0.309449 47.530013 -0.041898 0.107957 -0.038346 -0.324064 -10.485023 1.866672 0.000000 0.000000 0.000000 21.046443 12.265606 -16.128447 66.015116 -3.964922 -11.755093 36.056036 8.065335 28.449649 -4.789578 17.444401 -26.772167 0.000000 0.000000 0.000000 0.000000 0.000000 0.000000 16.023508 44.232699 -2.731312 -51.564400 57.235764 -2.941269 -13.036150 -6.783227 -39.640511 -7.716792 -39.623722 0.892401 0.000000 0.000000 0.000000 0.000000 0.000000 0.000000 6.858134 -0.297261 47.198829 -6.988776 0.190607 0.123609 -0.408439 -2.227653 3.436051 0.000000 0.000000 0.000000 3.942464 -1.974211 47.579009 -2.123501 -1.816273 -0.209472 1.008361 3.329772 1.168887 0.000000 0.000000 0.000000
-30.905756 86.334470 343.036818 -0.391809 5.508285 -47.476648 -0.533418 0.285409 47.478148 -0.050065 0.088717 -0.041134 -0.773906 -10.081086 1.875478 0.000000 0.000000 0.000000 21.124950 11.707755 -15.878615 65.190310 -4.171596 -11.954518 33.115626 10.984087 21.940149 -7.234328 11.556688 -17.883654 0.000000 0.000000 0.000000 0.000000 0.000000 0.000000 15.660846 43.840894 -2.564041 -53.363659 56.444471 -3.228540 -11.202292 -7.654294 -36.309717 -13.894088 -38.359061 -3.504014 0.000000 0.000000 0.000000 0.000000 0.000000 0.000000 6.890081 -0.311304 47.143786 -6.927291 0.269914 0.116732 -0.387790 -2.039973 3.444804 0.000000 0.000000 0.000000 3.962200 -1.999916 47.524829 -2.025638 -1.808998 -0.191498 0.808308 3.609628 1.322178 0.000000 0.000000 0.000000
-30.919205 86.252891 343.049174 -0.434292 5.535426 -47.286236 -0.493101 0.283905 47.290365 -0.053884 0.068911 -0.042491 -1.718382 -9.314498 1.913844 0.000000 0.000000 0.000000 21.421576 10.768213 -15.573669 63.749435 -3.990471 -12.632525 30.570759 13.288859 17.185157 -8.073446 9.528830 -13.601796 0.000000 0.000000 0.000000 0.000000 0.000000 0.000000 15.315425 43.491652 -2.424765 -55.359100 56.362749 -2.978432 -12.090650 -11.758225 -39.093809 -13.820797 -35.857081 -1.797941 0.000000 0.000000 0.000000 0.000000 0.000000 0.000000 6.918901 -0.313518 46.950734 -6.871050 0.403730 0.101808 -0.266551 -1.718117 3.394137 0.000000 0.000000 0.000000 3.985730 -2.048347 47.336186 -1.888784 -1.666917 -0.185145 0.706772 3.666522 1.380687 0.000000 0.000000 0.000000
-30.944792 86.160567 343.045669 -0.487757 5.567285 -47.016923 -0.467081 0.286943 47.023440 -0.070901 0.046033 -0.046440 -2.823703 -8.505065 2.009306 0.000000 0.000000 0.000000 21.861252 9.445524 -15.132977 62.245704 -3.724399 -13.747406 27.955739 15.177980 13.727379 -9.279428 11.401913 -12.614267 0.000000 0.000000 0.000000 0.000000 0.000000 0.000000 16.085596 43.287141 -2.559623 -57.606689 56.602684 -3.436682 -16.508686 -19.743157 -48.431703 -9.474884 -28.731434 9.707985 0.000000 0.000000 0.000000 0.000000 0.000000 0.000000 6.973325 -0.318064 46.682100 -6.859070 0.522874 0.085960 -0.101337 -1.422960 3.320489 0.000000 0.000000 0.000000 4.040145 -2.118410 47.073825 -1.768357 -1.573034 -0.171616 0.237822 3.594042 1.579547 0.000000 0.000000 0.000000
-30.985207 86.041745 343.040241 -0.551306 5.581399 -46.757985 -0.448573 0.301612 46.767450 -0.100403 0.047317 -0.052210 -3.968720 -7.683093 2.130005 0.000000 0.000000 0.000000 22.448454 7.775374 -14.572481 60.215162 -3.475744 -14.958186 26.593017 16.708547 10.917462 -11.555834 17.047489 -14.371558 0.000000 0.000000 0.000000 0.000000 0.000000 0.000000 17.514461 44.666949 -3.102046 -57.261773 55.144351 -7.006557 -31.553079 -25.511313 -71.904970 0.206233 -13.943258 31.851851 0.000000 0.000000 0.000000 0.000000 0.000000 0.000000 7.025542 -0.285531 46.417244 -6.916961 0.570518 0.077881 -0.104714 -1.384667 3.400918 0.000000 0.000000 0.000000 4.116688 -2.161892 46.825880 -1.706951 -1.499737 -0.164911 0.002069 3.793353 1.739128 0.000000 0.000000 0.000000
-31.028437 85.921128 343.039036 -0.606449 5.598582 -46.584117 -0.418224 0.315325 46.597018 -0.130905 0.050831 -0.057364 -5.094067 -6.987797 2.293099 0.000000 0.000000 0.000000 23.127529 6.014109 -13.997766 58.376501 -3.047014 -16.413375 24.715232 19.211545 7.133331 -14.017911 22.105249 -15.182283 0.000000 0.000000 0.000000 0.000000 0.000000 0.000000 19.602338 47.129277 -4.092120 -56.434486 51.930645 -12.995160 -55.705870 -36.921079 -105.334465 -6.860316 8.420909 54.392147 0.000000 0.000000 0.000000 0.000000 0.000000 0.000000 7.088191 -0.268739 46.245901 -6.945931 0.644138 0.066055 -0.114041 -1.161470 3.499246 0.000000 0.000000 0.000000 4.161577 -2.182506 46.656860 -1.647353 -1.505929 -0.148968 -0.070125 4.091189 1.822325 0.000000 0.000000 0.000000
-31.074460 85.807569 343.022442 -0.699965 5.629757 -46.475489 -0.437462 0.308658 46.488723 -0.173531 0.064299 -0.067922 -5.691253 -6.526650 2.394552 0.000000 0.000000 0.000000 23.898385 4.352170 -13.431940 56.963777 -2.554603 -17.897964 22.999040 21.337864 4.282132 -16.013843 23.719429 -14.284854 0.000000 0.000000 0.000000 0.000000 0.000000 0.000000 20.621122 48.688668 -4.631878 -56.515116 49.145583 -16.910505 -69.398531 -39.125808 -123.239657 -17.849696 11.895634 65.185541 0.000000 0.000000 0.000000 0.000000 0.000000 0.000000 7.210321 -0.249346 46.153668 -6.964315 0.754338 0.046120 0.022447 -1.456041 3.330809 0.000000 0.000000 0.000000 4.245774 -2.174919 46.555290 -1.656417 -1.512934 -0.153222 0.261023 4.276491 1.702889 0.000000 0.000000 0.000000
-31.108478 85.712099 343.018971 -0.803118 5.698878 -46.404893 -0.460872 0.283791 46.417475 -0.209260 0.079538 -0.078738 -5.926333 -6.406037 2.479026 0.000000 0.000000 0.000000 24.451701 3.116845 -12.951380 55.577638 -2.729295 -18.449611 23.542893 23.373180 1.049198 -17.361484 25.182410 -14.305921 0.000000 0.000000 0.000000 0.000000 0.000000 0.000000 20.852691 50.169143 -4.923475 -56.478206 46.424485 -20.058090 -76.585025 -38.335950 -133.111847 -23.689498 13.676307 74.181367 0.000000 0.000000 0.000000 0.000000 0.000000 0.000000 7.337244 -0.237756 46.094217 -6.987297 0.773918 0.039235 0.131830 -2.039228 3.126295 0.000000 0.000000 0.000000 4.337394 -2.162832 46.488918 -1.635378 -1.558652 -0.145809 0.607212 4.370852 1.525477 0.000000 0.000000 0.000000
-31.124552 85.634185 343.044163 -0.945434 5.775002 -46.384563 -0.493308 0.236486 46.395314 -0.236046 0.083118 -0.091095 -6.004059 -6.296218 2.545924 0.000000 0.000000 0.000000 24.448045 2.178546 -12.324586 55.978743 -3.252897 -19.400705 21.616555 24.799180 -0.342183 -19.191816 22.684390 -11.680790 0.000000 0.000000 0.000000 0.000000 0.000000 0.000000 22.915450 52.675150 -6.075204 -56.015304 44.030739 -24.417941 -84.980354 -48.479009 -141.438780 -34.226102 11.344252 74.224706 0.000000 0.000000 0.000000 0.000000 0.000000 0.000000 7.470515 -0.204159 46.083197 -6.993945 0.808825 0.027591 0.263223 -2.621970 2.918127 0.000000 0.000000 0.000000 4.422423 -2.095998 46.467631 -1.608338 -1.643428 -0.136353 1.187855 4.423288 1.211826 0.000000 0.000000 0.000000
